# AST/ASF file generated using VICON BodyLanguage
# -----------------------------------------------
:version 1.10
:name VICON
:units
  mass 1.0
  length 0.45
  angle deg
:documentation
   .ast/.asf automatically generated from VICON data using
   VICON BodyBuilder and BodyLanguage model FoxedUp or BRILLIANT.MOD
:root
   order TX TY TZ RX RY RZ
   axis XYZ
   position 0 0 0  
   orientation 0 0 0 
:bonedata
  begin
     id 1 
     name lhipjoint
     direction 0.611804 -0.747784 0.257906 
     length 2.29243 
     axis 0 0 0  XYZ
  end
  begin
     id 2 
     name lfemur
     direction 0.34202 -0.939693 0  
     length 7.31159  
     axis 0 0 20  XYZ
    dof rx ry rz
    limits (-160.0 20.0)
           (-70.0 70.0)
           (-60.0 70.0)
  end
  begin
     id 3 
     name ltibia
     direction 0.34202 -0.939693 0   
     length 7.33391   
     axis 0 0 20   XYZ
    dof rx
    limits (-10.0 170.0)
  end
  begin
     id 4 
     name lfoot
     direction 0.122263 -0.335914 0.933924   
     length 1.76083   
     axis -90 7.62852e-016 20   XYZ
    dof rx rz
    limits (-45.0 90.0)
           (-70.0 20.0)
  end
  begin
     id 5 
     name ltoes
     direction 1.53533e-011 -4.2177e-011 1   
     length 0.879206   
     axis -90 7.62852e-016 20   XYZ
    dof rx
    limits (-90.0 20.0)
  end
  begin
     id 6 
     name rhipjoint
     direction -0.646469 -0.721248 0.248754   
     length 2.37677  
     axis 0 0 0  XYZ 
  end
  begin
     id 7 
     name rfemur
     direction -0.34202 -0.939693 0   
     length 7.18623   
     axis 0 0 -20   XYZ
    dof rx ry rz
    limits (-160.0 20.0)
           (-70.0 70.0)
           (-70.0 60.0)
  end
  begin
     id 8 
     name rtibia
     direction -0.34202 -0.939693 0   
     length 7.36567   
     axis 0 0 -20   XYZ
    dof rx
    limits (-10.0 170.0)
 end
 begin
     id 9 
     name rfoot
     direction -0.126681 -0.348054 0.928876   
     length 1.71902  
     axis -90 -7.62852e-016 -20   XYZ
    dof rx rz
    limits (-45.0 90.0)
           (-20.0 70.0)
  end
  begin
     id 10 
     name rtoes
     direction -1.53551e-011 -4.21898e-011 1   
     length 0.857792   
     axis -90 -7.62852e-016 -20   XYZ
    dof rx
    limits (-90.0 20.0)
  end
  begin
     id 11 
     name lowerback
     direction 0.0106509 0.999778 0.0181844   
     length 2.07668   
     axis 0 0 0   XYZ
    dof rx ry rz
    limits (-20.0 45.0)
           (-30.0 30.0)
           (-30.0 30.0)
  end
  begin
     id 12 
     name upperback
     direction -0.00456018 0.999989 -0.000590935   
     length 2.08011   
     axis 0 0 0   XYZ
    dof rx ry rz
    limits (-20.0 45.0)
           (-30.0 30.0)
           (-30.0 30.0)
  end
  begin
     id 13 
     name thorax
     direction -0.00910382 0.999916 -0.00923765   
     length 2.07397   
     axis 0 0 0   XYZ
    dof rx ry rz
    limits (-20.0 45.0)
           (-30.0 30.0)
           (-30.0 30.0)
  end
  begin
     id 14 
     name lowerneck
     direction 0.00171967 0.99778 0.0665733   
     length 1.67556   
     axis 0 0 0   XYZ
    dof rx ry rz
    limits (-20.0 45.0)
           (-30.0 30.0)
           (-30.0 30.0)
  end
  begin
     id 15 
     name upperneck
     direction -0.0143166 0.991302 -0.130828   
     length 1.68462   
     axis 0 0 0   XYZ
    dof rx ry rz
    limits (-20.0 45.0)
           (-30.0 30.0)
           (-30.0 30.0)
  end
  begin
     id 16
     name head
     direction -0.00606378 0.998665 -0.0512995  
     length 1.69269  
     axis 0 0 0   XYZ
    dof rx ry rz
    limits (-20.0 45.0)
           (-30.0 30.0)
           (-30.0 30.0)
  end
  begin
     id 17 
     name lclavicle
     direction 0.9638 0.179341 0.197297  
     length 4.12888  
     axis 0 0 0   XYZ
    dof ry rz
    limits (-20.0 10.0)
           (0.0 20.0)
  end
  begin
     id 18 
     name lhumerus
     direction 1 -4.48972e-011 -2.47351e-027   
     length 5.01834   
     axis -180 -30 -90   XYZ
    dof rx ry rz
    limits (-60.0 90.0)
           (-90.0 90.0)
           (-90.0 90.0)
  end
  begin
     id 19
     name lradius
     direction 1 -4.48965e-011 1.51591e-026   
     length 3.4869   
     axis -180 -30 -90   XYZ
    dof rx
    limits (-10.0 170.0)
  end
  begin
     id 20
     name lwrist
     direction 1 -4.48957e-011 2.70032e-026   
     length 1.74345   
     axis -1.81515e-014 90 90   XYZ
    dof ry
    limits (-180.0 0.0)
 end
  begin
     id 21 
     name lhand
     direction 1 -4.48951e-011 5.40064e-026   
     length 0.76799   
     axis -3.44607e-014 90 90   XYZ
    dof rx rz
    limits (-90.0 90.0)
           (-45.0 45.0)
  end
  begin
     id 22 
     name lfingers
     direction 1 -4.48971e-011 1.08013e-025   
     length 0.619174   
     axis -6.89214e-014 90 90   XYZ
    dof rx
    limits (0.0 90.0)
  end
  begin
     id 23
     name lthumb
     direction 0.707107 -6.34931e-011 0.707107   
     length 0.889013   
     axis -90 45 2.85299e-015   XYZ
    dof rx rz
    limits (-45.0 45.0)
           (-45.0 45.0)
  end
  begin
     id 24 
     name rclavicle
     direction -0.961409 0.252588 0.109054   
     length 4.04305  
     axis 0 0 0   XYZ 
    dof ry rz
    limits (-10.0 20.0)
           (-20.0 0.0)
  end
  begin
     id 25 
     name rhumerus
     direction -1 -4.4897e-011 1.33872e-017  
     length 4.70164   
     axis -180 30 90   XYZ
    dof rx ry rz
    limits (-90.0 60.0)
           (-90.0 90.0)
           (-90.0 90.0)
  end
  begin
     id 26 
     name rradius
     direction -1 -4.48954e-011 1.83844e-026   
     length 3.49911   
     axis -180 30 90   XYZ
    dof rx
    limits (-10.0 170.0)
  end
  begin
     id 27 
     name rwrist
     direction -1 -4.49008e-011 2.70032e-026   
     length 1.74955   
     axis -1.81515e-014 -90 -90   XYZ
    dof ry
    limits (-180.0 0.0)
  end
  begin
     id 28
     name rhand
     direction -1 -4.48916e-011 5.40064e-026   
     length 0.739335   
     axis -3.44607e-014 -90 -90   XYZ
    dof rx rz
    limits (-90.0 90.0)
           (-45.0 45.0)
  end
  begin
     id 29
     name rfingers
     direction -1 -4.48987e-011 1.08013e-025   
     length 0.596071   
     axis -6.89214e-014 -90 -90   XYZ
    dof rx
    limits (0.0 90.0)
  end
  begin
     id 30
     name rthumb
     direction -0.707107 -6.34935e-011 0.707107   
     length 0.855843   
     axis -90 -45 -2.85299e-015   XYZ
    dof rx rz
    limits (-45.0 45.0)
           (-45.0 45.0)
  end
:hierarchy
  begin
    root lhipjoint rhipjoint lowerback
    lhipjoint lfemur
    lfemur ltibia
    ltibia lfoot
    lfoot ltoes
    rhipjoint rfemur
    rfemur rtibia
    rtibia rfoot
    rfoot rtoes
    lowerback upperback
    upperback thorax
    thorax lowerneck lclavicle rclavicle
    lowerneck upperneck
    upperneck head
    lclavicle lhumerus
    lhumerus lradius
    lradius lwrist
    lwrist lhand lthumb
    lhand lfingers
    rclavicle rhumerus
    rhumerus rradius
    rradius rwrist
    rwrist rhand rthumb
    rhand rfingers
  end

#!OML:ASF I:\salsa\salsa 7_09\Patient 1\Session 1\dancermale.ASF
:FULLY-SPECIFIED
:DEGREES
81
root -17.5142 17.5924 -1.0103 181.846 96.2294 171.851
lowerback -9.37548 2.11377 3.10367
upperback 0.149277 2.54094 -0.991528
thorax 5.60075 1.35882 -2.42241
lowerneck -5.74158 -12.072 -5.0822
upperneck 8.7963 -16.2643 5.40004
head 4.42447 -7.91492 1.43786
rclavicle -7.03201e-015 1.98785e-015
rhumerus -46.7634 23.7674 -114.656
rradius 102.893
rwrist 1.13028
rhand -23.5474 5.92564
rfingers 7.12502
rthumb 2.9145 -24.0342
lclavicle -7.03201e-015 1.98785e-015
lhumerus -43.9924 -34.9528 111.417
lradius 105.393
lwrist 22.4276
lhand -21.8589 47.4974
lfingers 7.12502
lthumb 4.54504 77.4286
rfemur -23.282 -1.47415 14.999
rtibia 22.2896
rfoot -11.9877 -12.7001
rtoes -8.36219
lfemur -8.74293 7.48301 -20.6363
ltibia 10.6261
lfoot -16.234 6.157
ltoes -2.82873
82
root -17.5473 17.5906 -1.0527 182.663 96.3963 172.662
lowerback -9.29827 2.06276 2.94966
upperback 0.260148 2.4969 -1.10612
thorax 5.66939 1.33647 -2.46269
lowerneck -6.10809 -12.0655 -5.09177
upperneck 9.14285 -16.2613 5.41654
head 4.59302 -7.89842 1.40855
rclavicle -7.70291e-015 -9.93923e-016
rhumerus -46.8809 23.584 -114.98
rradius 102.755
rwrist 1.50941
rhand -23.495 6.19056
rfingers 7.12502
rthumb 2.96505 -23.7686
lclavicle -7.70291e-015 -9.93923e-016
lhumerus -44.0156 -35.186 111.09
lradius 105.416
lwrist 22.5789
lhand -21.7132 47.554
lfingers 7.12502
lthumb 4.68574 77.4822
rfemur -23.7624 -1.72448 14.8639
rtibia 22.9939
rfoot -12.5925 -12.6567
rtoes -8.49233
lfemur -8.77793 7.84059 -20.8788
ltibia 10.4381
lfoot -16.2804 5.82864
ltoes -2.1198
83
root -17.5783 17.5885 -1.09136 183.244 96.5535 173.279
lowerback -9.21838 1.99494 2.80814
upperback 0.396399 2.42848 -1.20997
thorax 5.76171 1.3028 -2.50201
lowerneck -6.08765 -11.9504 -5.26233
upperneck 9.08145 -16.133 5.82617
head 4.61251 -7.82044 1.5635
rclavicle 2.24875e-014 -5.76476e-015
rhumerus -47.0277 23.5051 -115.365
rradius 102.583
rwrist 2.06909
rhand -23.7523 6.2961
rfingers 7.12502
rthumb 2.71661 -23.6663
lclavicle 2.24875e-014 -5.76476e-015
lhumerus -43.9645 -35.5096 110.7
lradius 105.428
lwrist 22.7891
lhand -21.6671 47.6124
lfingers 7.12502
lthumb 4.73018 77.5396
rfemur -24.2018 -1.96548 14.7681
rtibia 23.8219
rfoot -13.3371 -12.4841
rtoes -9.07693
lfemur -8.7824 8.15749 -21.0849
ltibia 10.2951
lfoot -16.1984 5.51929
ltoes -1.46444
84
root -17.6082 17.5869 -1.12794 183.433 96.7265 173.551
lowerback -9.12458 1.9883 2.74927
upperback 0.522198 2.43165 -1.28768
thorax 5.8425 1.30618 -2.55063
lowerneck -5.93035 -11.8853 -5.73738
upperneck 9.10415 -16.0689 6.37983
head 4.67495 -7.77744 1.80262
rclavicle -1.38652e-014 1.35174e-014
rhumerus -47.2717 23.3096 -115.583
rradius 102.514
rwrist 2.58997
rhand -23.8562 6.24548
rfingers 7.12502
rthumb 2.61619 -23.7182
lclavicle -1.38652e-014 1.35174e-014
lhumerus -43.939 -35.9216 110.49
lradius 105.304
lwrist 22.9564
lhand -21.742 47.2614
lfingers 7.12502
lthumb 4.65787 77.1902
rfemur -24.6304 -2.2368 14.7503
rtibia 24.7566
rfoot -13.9575 -12.247
rtoes -10.0074
lfemur -8.75741 8.28889 -21.2526
ltibia 10.1995
lfoot -16.0746 5.48441
ltoes -1.0482
85
root -17.6349 17.5863 -1.15916 183.416 96.8651 173.671
lowerback -9.02661 1.98762 2.6917
upperback 0.662345 2.44316 -1.36995
thorax 5.93694 1.31417 -2.60351
lowerneck -5.98284 -11.9154 -5.99196
upperneck 9.43816 -16.1193 6.53561
head 4.82334 -7.79359 1.86421
rclavicle 9.51682e-015 -8.54774e-015
rhumerus -47.5105 23.0315 -115.768
rradius 102.494
rwrist 2.96328
rhand -23.7393 6.23939
rfingers 7.12502
rthumb 2.72914 -23.7229
lclavicle 9.51682e-015 -8.54774e-015
lhumerus -43.8528 -36.3838 110.292
lradius 105.129
lwrist 23.0514
lhand -21.8088 47.1083
lfingers 7.12502
lthumb 4.59342 77.0385
rfemur -24.9647 -2.64122 14.82
rtibia 25.7398
rfoot -14.4508 -12.0648
rtoes -11.2826
lfemur -8.69037 8.27434 -21.3814
ltibia 10.152
lfoot -15.9565 5.61539
ltoes -0.883409
86
root -17.66 17.586 -1.18746 183.376 97.0344 173.878
lowerback -8.75609 1.99162 2.67818
upperback 0.776162 2.46163 -1.47239
thorax 5.9092 1.3258 -2.70679
lowerneck -5.89144 -11.9333 -6.22825
upperneck 9.73715 -16.1555 6.66109
head 4.93274 -7.80802 1.9262
rclavicle 7.65321e-015 5.96354e-015
rhumerus -47.7544 22.7749 -116.048
rradius 102.435
rwrist 3.16466
rhand -23.8313 6.20309
rfingers 7.12502
rthumb 2.6403 -23.7603
lclavicle 7.65321e-015 5.96354e-015
lhumerus -43.8802 -36.8352 110.071
lradius 105.095
lwrist 23.1118
lhand -21.6628 47.1723
lfingers 7.12502
lthumb 4.73437 77.0994
rfemur -25.1504 -3.08096 14.9277
rtibia 26.8838
rfoot -15.0139 -11.8957
rtoes -12.5158
lfemur -8.47827 8.13063 -21.4896
ltibia 10.0802
lfoot -15.872 5.85969
ltoes -0.483804
87
root -17.6847 17.5849 -1.21558 183.26 97.2584 173.967
lowerback -8.5178 2.03635 2.73679
upperback 0.867191 2.52579 -1.56571
thorax 5.88184 1.36195 -2.8342
lowerneck -5.65064 -11.9726 -6.61406
upperneck 9.88285 -16.2109 6.83255
head 4.98763 -7.842 2.03457
rclavicle 4.07509e-015 1.98785e-015
rhumerus -48.0091 22.5158 -116.231
rradius 102.38
rwrist 3.29594
rhand -23.932 6.22859
rfingers 7.12502
rthumb 2.54303 -23.736
lclavicle 4.07509e-015 1.98785e-015
lhumerus -43.9047 -37.324 109.844
lradius 105.123
lwrist 23.1645
lhand -21.4093 47.1814
lfingers 7.12502
lthumb 4.97913 77.1029
rfemur -25.4258 -3.45385 15.0931
rtibia 28.2991
rfoot -15.5492 -11.7722
rtoes -13.4284
lfemur -8.29849 7.92642 -21.5824
ltibia 10.0064
lfoot -15.797 6.19628
ltoes 0.160066
88
root -17.7063 17.5846 -1.23892 183.018 97.4272 173.763
lowerback -8.49031 2.1038 2.84164
upperback 0.89884 2.61294 -1.68516
thorax 5.9171 1.41167 -3.00675
lowerneck -5.46333 -12.0389 -6.9339
upperneck 10.1589 -16.3074 6.93731
head 5.08391 -7.89353 2.10346
rclavicle -6.5102e-015 1.27222e-014
rhumerus -48.2888 22.2174 -116.383
rradius 102.417
rwrist 3.39476
rhand -23.9779 6.26092
rfingers 7.12502
rthumb 2.4987 -23.7042
lclavicle -6.5102e-015 1.27222e-014
lhumerus -43.9208 -37.8947 109.625
lradius 105.113
lwrist 23.2744
lhand -21.0445 47.4178
lfingers 7.12502
lthumb 5.33138 77.3307
rfemur -25.8621 -3.82187 15.3275
rtibia 29.8759
rfoot -16.0009 -11.6461
rtoes -13.9335
lfemur -8.3377 7.92349 -21.6302
ltibia 10.018
lfoot -15.7432 6.34489
ltoes 0.350204
89
root -17.7206 17.587 -1.25613 182.535 97.5313 173.229
lowerback -8.49424 2.17779 3.03075
upperback 0.810373 2.70118 -1.82558
thorax 5.84953 1.46216 -3.24971
lowerneck -5.30459 -12.0671 -7.25816
upperneck 10.6219 -16.3487 6.94132
head 5.23129 -7.91956 2.14142
rclavicle 1.54058e-014 5.56597e-015
rhumerus -48.6789 21.8628 -116.592
rradius 102.5
rwrist 3.48208
rhand -23.9453 6.2614
rfingers 7.12502
rthumb 2.53016 -23.7033
lclavicle 1.54058e-014 5.56597e-015
lhumerus -44.1271 -38.4079 109.545
lradius 105.091
lwrist 23.3903
lhand -20.4304 47.8576
lfingers 7.12502
lthumb 5.92426 77.7547
rfemur -26.2525 -4.26547 15.6438
rtibia 31.4035
rfoot -16.3841 -11.4452
rtoes -14.3652
lfemur -8.46166 8.1592 -21.6081
ltibia 10.0494
lfoot -15.6911 6.22719
ltoes 0.0152071
90
root -17.7313 17.591 -1.27172 182.191 97.658 172.847
lowerback -8.51276 2.22696 3.21365
upperback 0.720822 2.7548 -1.93735
thorax 5.78522 1.49455 -3.46371
lowerneck -5.19935 -12.0209 -7.57426
upperneck 11.0766 -16.278 6.88164
head 5.37124 -7.89403 2.1674
rclavicle 1.35174e-014 1.35174e-014
rhumerus -49.0135 21.6704 -116.75
rradius 102.548
rwrist 3.43182
rhand -23.7091 6.15487
rfingers 7.12502
rthumb 2.75828 -23.807
lclavicle 1.35174e-014 1.35174e-014
lhumerus -44.3133 -38.7112 109.475
lradius 105.094
lwrist 23.4682
lhand -20.044 47.9886
lfingers 7.12502
lthumb 6.29736 77.875
rfemur -26.498 -4.50362 15.9136
rtibia 32.7679
rfoot -16.664 -11.24
rtoes -15.3566
lfemur -8.52928 8.39272 -21.5981
ltibia 10.0245
lfoot -15.629 6.10961
ltoes -0.153499
91
root -17.7432 17.5946 -1.28747 182.186 97.8065 172.885
lowerback -8.56732 2.25807 3.33786
upperback 0.738388 2.78848 -2.03925
thorax 5.84956 1.51857 -3.63441
lowerneck -5.16207 -11.9102 -8.06484
upperneck 11.4395 -16.1374 7.1447
head 5.53036 -7.82315 2.31858
rclavicle 4.12478e-015 -1.15295e-014
rhumerus -49.1838 21.6718 -116.841
rradius 102.651
rwrist 3.24853
rhand -23.6234 5.94586
rfingers 7.12502
rthumb 2.84108 -24.015
lclavicle 4.12478e-015 -1.15295e-014
lhumerus -44.3111 -38.923 109.314
lradius 105.14
lwrist 23.459
lhand -19.8133 47.7013
lfingers 7.12502
lthumb 6.52008 77.5809
rfemur -26.5761 -4.50478 16.073
rtibia 33.9727
rfoot -16.9624 -10.9632
rtoes -16.3231
lfemur -8.49436 8.50243 -21.6448
ltibia 9.94996
lfoot -15.5994 6.08954
ltoes 0.394664
92
root -17.753 17.5965 -1.29845 182.277 97.9629 173.048
lowerback -8.58667 2.28503 3.39283
upperback 0.765296 2.82315 -2.11628
thorax 5.89924 1.54038 -3.74068
lowerneck -5.27007 -11.8185 -8.70028
upperneck 11.8645 -16.0231 7.54089
head 5.75783 -7.75868 2.5182
rclavicle 6.80837e-015 4.37326e-015
rhumerus -49.3912 21.7407 -116.877
rradius 102.799
rwrist 3.09876
rhand -23.692 6.01336
rfingers 7.12502
rthumb 2.77484 -23.9483
lclavicle 6.80837e-015 4.37326e-015
lhumerus -44.2883 -39.0926 109.251
lradius 105.232
lwrist 23.4109
lhand -19.6223 47.2361
lfingers 7.12502
lthumb 6.70447 77.11
rfemur -26.5408 -4.38283 16.189
rtibia 35.011
rfoot -17.3997 -10.5265
rtoes -17.2107
lfemur -8.40274 8.57564 -21.6873
ltibia 9.84603
lfoot -15.5519 6.11889
ltoes 0.67849
93
root -17.7611 17.5973 -1.30303 182.402 98.0643 173.191
lowerback -8.56334 2.26029 3.36079
upperback 0.697269 2.79615 -2.14289
thorax 5.81139 1.52413 -3.75621
lowerneck -5.47395 -11.7722 -8.93
upperneck 12.3517 -15.9242 7.35533
head 5.94036 -7.71787 2.47988
rclavicle -2.10215e-014 -3.97569e-015
rhumerus -49.6409 21.9698 -116.883
rradius 102.822
rwrist 2.98156
rhand -23.6989 6.21752
rfingers 7.12502
rthumb 2.76816 -23.7443
lclavicle -2.10215e-014 -3.97569e-015
lhumerus -44.3608 -39.0244 109.329
lradius 105.319
lwrist 23.4724
lhand -19.7725 46.8075
lfingers 7.12502
lthumb 6.55942 76.6859
rfemur -26.4433 -4.10165 16.261
rtibia 35.8434
rfoot -18.0132 -9.81138
rtoes -17.6124
lfemur -8.366 8.6231 -21.7136
ltibia 9.76687
lfoot -15.4734 6.17393
ltoes 0.10487
94
root -17.7669 17.5982 -1.30524 182.574 98.1022 173.248
lowerback -8.71821 2.21093 3.35173
upperback 0.580695 2.73054 -2.18525
thorax 5.77165 1.48998 -3.80213
lowerneck -5.48591 -11.7027 -8.85047
upperneck 12.5676 -15.7954 6.99571
head 5.96348 -7.67085 2.36812
rclavicle -1.98785e-014 -3.97569e-015
rhumerus -49.7782 22.2827 -116.938
rradius 102.789
rwrist 2.81561
rhand -23.8454 6.34369
rfingers 7.12502
rthumb 2.62663 -23.6199
lclavicle -1.98785e-014 -3.97569e-015
lhumerus -44.4598 -38.78 109.377
lradius 105.368
lwrist 23.5131
lhand -19.808 46.6467
lfingers 7.12502
lthumb 6.5252 76.5262
rfemur -26.3247 -3.6748 16.2915
rtibia 36.373
rfoot -18.7845 -8.80239
rtoes -17.8573
lfemur -8.48443 8.57201 -21.7491
ltibia 9.71881
lfoot -15.4311 6.24509
ltoes -0.14854
95
root -17.7676 17.5999 -1.30737 182.747 98.1617 173.207
lowerback -9.06132 2.20856 3.41884
upperback 0.461411 2.7167 -2.25651
thorax 5.84573 1.48629 -3.90893
lowerneck -5.35783 -11.639 -8.81382
upperneck 12.5827 -15.7024 6.8639
head 5.92539 -7.63558 2.34066
rclavicle 3.65267e-014 -2.82274e-014
rhumerus -49.8643 22.4847 -116.974
rradius 102.877
rwrist 2.7087
rhand -24.0537 6.34333
rfingers 7.12502
rthumb 2.42548 -23.6226
lclavicle 3.65267e-014 -2.82274e-014
lhumerus -44.6161 -38.5756 109.46
lradius 105.398
lwrist 23.4428
lhand -19.5679 46.6169
lfingers 7.12502
lthumb 6.75694 76.4891
rfemur -26.1535 -3.23742 16.3353
rtibia 36.486
rfoot -19.5711 -7.72355
rtoes -18.6817
lfemur -8.67811 8.44705 -21.7861
ltibia 9.63353
lfoot -15.3803 6.34903
ltoes 0.129695
